<svg width="32" height="32" viewBox="0 0 25 24" fill="none" xmlns="http://www.w3.org/2000/svg">
<path d="M22.0331 5.05672H14.9491V8.11472C15.6531 7.70405 16.4598 7.49872 17.3691 7.49872C18.4105 7.49872 19.2611 7.82139 19.9211 8.46672C20.5958 9.11205 20.9331 10.0067 20.9331 11.1507C20.9331 11.7961 20.8085 12.5147 20.5591 13.3067C20.3245 14.0987 19.9358 14.9054 19.3931 15.7267L16.8191 14.2967C17.1565 13.8421 17.4351 13.3727 17.6551 12.8887C17.8751 12.4047 17.9851 11.9061 17.9851 11.3927C17.9851 10.8501 17.8678 10.4687 17.6331 10.2487C17.4131 10.0287 17.1198 9.91872 16.7531 9.91872C16.4158 9.91872 15.7631 10.2267 15.7631 10.2267C15.7631 10.2267 14.7338 10.6521 14.4991 10.8867V16.3207H12.0011V13.5267C11.5171 13.8054 11.0258 14.0181 10.5271 14.1647C10.0431 14.3114 9.47848 14.3847 8.83314 14.3847C8.02648 14.3847 7.28581 14.2381 6.61114 13.9447C5.95114 13.6367 5.42314 13.1894 5.02714 12.6027C4.63114 12.0161 4.43314 11.2827 4.43314 10.4027C4.43314 9.58138 4.63114 8.87738 5.02714 8.29072C5.42314 7.68938 5.97314 7.22738 6.67714 6.90472C7.38114 6.56738 8.19514 6.39872 9.11914 6.39872C9.52981 6.39872 9.94048 6.41338 10.3511 6.44272C10.7765 6.47205 11.1065 6.52339 11.3411 6.59672L11.1211 9.03872C10.6518 8.92138 10.1311 8.86272 9.55914 8.86272C8.86981 8.86272 8.33447 9.00205 7.95314 9.28072C7.57181 9.54472 7.38114 9.91872 7.38114 10.4027C7.38114 10.9894 7.56448 11.3927 7.93114 11.6127C8.29781 11.8327 8.69381 11.9427 9.11914 11.9427C9.73514 11.9427 10.2778 11.8034 10.7471 11.5247C11.2311 11.2461 11.6491 10.9234 12.0011 10.5567V5.05672H3.61914V2.63672H22.0331V5.05672Z" fill="currentColor"/>
<path d="M17.6931 21.4467C17.3118 21.6374 16.8571 21.8134 16.3291 21.9747C15.7865 22.136 15.1411 22.2167 14.3931 22.2167C13.6598 22.2167 13.0071 22.0774 12.4351 21.7987C11.8631 21.5347 11.4158 21.1607 11.0931 20.6767C10.7558 20.2074 10.5871 19.6574 10.5871 19.0267C10.5871 17.9707 10.9611 17.1274 11.7091 16.4967C12.4425 15.8807 13.0485 15.5287 14.4271 15.4407L14.6911 17.7067C13.9431 17.7507 13.8798 17.8901 13.6011 18.1247C13.3225 18.3741 13.1831 18.6601 13.1831 18.9827C13.1831 19.6574 13.6305 19.9947 14.5251 19.9947C14.8625 19.9947 15.2071 19.9434 15.5591 19.8407C15.9111 19.7381 16.3365 19.5621 16.8351 19.3127L17.6931 21.4467Z" fill="currentColor"/>
</svg> 